<!-- Generator: Adobe Illustrator 19.1.0, SVG Export Plug-In  -->
<svg version="1.1"
	 xmlns="http://www.w3.org/2000/svg" xmlns:xlink="http://www.w3.org/1999/xlink" xmlns:a="http://ns.adobe.com/AdobeSVGViewerExtensions/3.0/"
	 x="0px" y="0px" width="473.3px" height="467px" viewBox="0 0 473.3 467" style="enable-background:new 0 0 473.3 467;"
	 xml:space="preserve">
<style type="text/css">
	.st0{fill:none;stroke:#FFFFFF;stroke-width:2;stroke-miterlimit:10;}
</style>
<defs>
</defs>
<path class="st0" d="M36.9,401.1l-10-0.7l-13,9.9l-3.6,4.3l3.6,10.2l-1.7,9.8l-0.3,4.3L8,445.2l-6.9,4.9l2.7,10.9
	c0,0,7.7,4.9,9.7,5.1s8.3-3.7,8.3-3.7l11,0.7l9.8-11.3l8.1-1.6l3.1,4.1l4.1-1.8l5.9-9l5.9,1.1L99,427.1l4.7-11l9.2,2.6l-9.4,11.4
	l0.1,8.3l20.8-21.6l23.4-19.8l21.5-22.6l7.7-4.8l5.6-14.3l-12.7-20.2l-1-26.1l-7.7-4.5l-14.2,3.1l-20.8,1.3l-7.6,3.5l-9.4,0.1
	l-11.6,3.2l-8.4-4.6l-7.9-2.5l-9.7-4l-14.9,14l-1.1,17.4l-2.3,11.5l5.7,4.4L51,364.5l-4.5,17.9L43,394L36.9,401.1z"/>
<polygon class="st0" points="282,44.3 276,44.3 268.7,61.2 261,71.6 261,81.3 252.1,103.6 247.6,108.3 225,152.3 208.3,180.3 
	204.4,193.6 208.2,199 204,204.3 204,209.3 204.1,213.6 198.9,235.8 206.3,241 216,235.8 218.4,229.6 225,226.3 234.4,229 
	243.5,207 240,202.3 240,189.3 266,153 266,142.3 273.5,133.6 274.2,127 273,119 271.7,104.3 270.4,85.6 290,52.2 "/>
<polygon class="st0" points="291.6,1.3 279.2,37.8 296,43.8 296,56.3 278.5,89.6 281.6,124.3 290,134.3 299,125 299,121.3 
	310.1,122.3 313.7,127.6 324,128.3 324,121.3 318.1,109.6 329.6,115.6 337.6,116.3 336,121 337.5,124.6 346,124 346,120.3 
	341,117.3 341,113.3 345.8,116.3 350,107 350,96.3 354.5,106.3 352.2,114 352.5,122.3 358,123.6 358,116.3 371.1,113.3 378.9,116.3 
	382.8,119.6 393,125 393,120.3 385.8,117 382.2,114.6 380,111.6 386.3,114.3 389,110.6 382,107.3 379,100 373.4,103 375,99.3 
	371.7,84.3 373.7,79.6 372.4,75.6 371.7,72 371.2,67.7 370,65.6 370,61.3 370.5,59.3 366.6,51.6 365.7,43.8 366.8,38 372,37.3 
	372.5,51.6 375,52.6 375,56.3 378.5,63 382.6,59.3 381.3,70.3 385.7,76 387.4,66.3 393.5,54 401,48.3 396.7,43.8 402.5,40.3 
	395,37.5 390.4,47.6 383,55.3 380.7,52.3 391.7,35 353,23 351,13 340.4,8.3 334.4,17 "/>
<path class="st0" d="M249.1,200.3l1.7-9.7l16-24.5l4.2-2.5v-2.2l-1.8-2.2l2.1-6.8l3.8,2.2l6.8-2.2l11.5-13l3.8,1.2l1.8,4l1.6-2.2
	l5.4,3.7v3.2l4,4.8v6.2l6-1l-1.1-8.2c0,0,8.1-1,8.8-1s14.3,10.5,14.3,10.5v4.8l-6,0.2l6.4,7.2l6.8,1.8l7.3-6.8l-6.2-2l-2.7-5
	l1.3-11.2l-7-1l-0.7-3.2l5.5-2.5l-2-6.5h2.5l3.2,1l4.2-2.9l4-1.4l2,10.2h2.5l4.5-7l-1.5-3h5l3.2-5.2l6.1,4.6L391,136v3.2l11,1v-3
	l1.8-2h5.2l3.5,7.3l-3.8,2l7.2,11.4l5.5,9.2l5.5,2.2l-2.2-6.5l2.2-2.5l-1.8-6.3c0,0,2.8-4,3.5-4s42.2,34.2,42.2,34.2l1.2,15.7
	l-6.8,13l-19.2,5.2l3.8,13l0.2,37l-1.8,17l2.8,10l-14.2,6.2l-1.2,7.2l-5.8,3.8v3.5l-15,8.5l-1.6,6l2.8,2.2l-1.2,5l-8.5-2.2l4-9.2
	l-16.2-10.8l-26-16.2l-8.7,0.5l-3.2,4.8c0,0-11.5,2-12,1s-2-4.2-2-4.2l3-3.5l-5.2-0.2l-4.2-5l-1.2-4.2l4-1L328,247.3l-16.2,11.5
	l-7.5,2l-5.8-12.8l-13-16.1l-8.2-21.9l-7.5-2.2l-4.2-6L257,198L249.1,200.3z"/>
<path class="st0" d="M249.1,200.3l0.5,15l-7.8,16.8l-7.3,4.2H222l-8.7,18.2l-12.7,9.9l2,6.3l6,5l-1.7,4.6h-3l-3.3-6.8l-1.7,2.2
	l5,7.3l10.7-2l2,3.7l-7,3.7H204l-9,5.3v6.7h-4l-3.3,4.6l-2.3,6.2l-4.7,13.9l5.7,19.6l15.3,5.3l15,8.7l2.7,5.3l-2.3,5.3l7.3,2.3l1,5
	l-13.3-3l-6.3,3l2.7,5.9l14,3.1l52.3-6l1.7-8l3.2-0.7l12.5,2.7v-6.3l10.4-1.7l4.1,8l-5.9-2.3l-1.6,2.3l7.3,5.3l15.7-3.3v-6.3
	l-7.2-22.7l-10.2,1.7l0.4-3.7l5.4-2.3l2.3-0.2c0,0-9.7-13.8-8-13.8s6.3,0,6.3,0l2-5.4l9.5-10.1l7.5-2.1l-4.7-8.7l12.3,1.7l2.3-7.8"
	/>
<polygon class="st0" points="327.4,321.8 319.9,326.6 317.7,335.3 328.2,331.5 329.5,324.6 "/>
<path class="st0" d="M346,315.8c-0.5,0.2-6,4-6,4l-2.9,4.5l9,0.7v-1.7l2-1.5v-4.5L346,315.8z"/>
<polygon class="st0" points="339,333.3 333.9,331.4 332,334.6 332,342.3 336,343.5 339.7,339.6 "/>
<polygon class="st0" points="347.1,333.6 344.2,339.8 345.7,345.3 341.9,348.6 348,351.3 352.9,347.5 350.9,342.5 348.9,337.8 "/>
<polygon class="st0" points="342,355.6 334.2,352.3 331.3,354.8 336.8,360.5 342,358.5 "/>
<polygon class="st0" points="329,361.3 326.6,364.3 327.8,368.3 327.8,368.3 326.6,371.9 329,376.6 332.2,374.4 334,369.5 
	334,366.3 332.3,362.8 "/>
<path class="st0" d="M359.3,309.8l0.7,9.1l-2.9,8.1v6.2l-3,0.3v2.7l3,1.2v2.8l5-3.2l4,2.3v10.8l-5.8,4.1l-1.5,2.8l1.1,2.1h7.2
	l5.2-4.7l3.5-10.7l-1.8-4.4l-1.8-7.2l2.5-2.2c0,0,0.3-1.2-0.2-1.6s-3.5-1.4-3.5-1.4s-0.8-1-0.2-1s2.7-0.7,2.7-0.7l-1.7-4.8l-2.5-3
	l0.8-1.7l-1-3.2l-2.8-4.7L359.3,309.8z"/>
<polygon class="st0" points="386.7,320 380,322.6 377.5,326.6 379.4,331.9 380.2,335.3 382,335.3 383,332.2 383.5,328.3 386,328.3 
	388.2,322.7 "/>
<polygon class="st0" points="393.2,324.5 391.2,330.8 388.7,335.4 386.7,338.6 392.5,341.4 394.2,344.8 401.4,339.5 403.7,336.8 
	402.5,333.6 400.4,330.6 399.4,327.1 "/>
<polygon class="st0" points="385.6,343.2 379,345.3 379,348.3 380.9,351.3 386,351.3 388.9,349.7 388.1,346.9 "/>
<path class="st0" d="M407,341.7c-0.5,0-4.9,2.2-4.9,2.2l-1.3,3.7l-2,7.6l-2.2,2.1l0.7-8l-5.5,5.1l-9.3,2.9l-12.2,8.8l-17,3.8l-8,1.5
	l-23,15.2l-11.2,2.3l-5.2-0.5l-8.3,4.8H293l-6.7,2.4c0,0-5.5-0.6-6-0.1s-8,3.4-8,3.4l-3.5,2.6l1.5,7.2l27.8-7.5l5.2-0.3l12.7-3
	l22.3-9.7l17.3-9l21.7-8.5l20.3-4.3l11.8-3.7l18.2-0.2l6.9-4.8l4.4,0.7v-9.2L435,344l-1.2-3.7H430l-4.5,2.7l-4.5-2.7h-3l-6.5-2.4
	l-1.7,1.7l3.5,1.9l-0.2,5.2l0.2,6.8l-2.8,0.9l-1.8-2.8l-3.3,2.8l-2.7-0.9l4.3-3.2l2.8-5.3L407,341.7z"/>
</svg>
