<!-- Generator: Adobe Illustrator 19.1.0, SVG Export Plug-In  -->
<svg version="1.1"
	 xmlns="http://www.w3.org/2000/svg" xmlns:xlink="http://www.w3.org/1999/xlink" xmlns:a="http://ns.adobe.com/AdobeSVGViewerExtensions/3.0/"
	 x="0px" y="0px" width="1487.6px" height="1416.8px" viewBox="0 0 1487.6 1416.8"
	 style="enable-background:new 0 0 1487.6 1416.8;" xml:space="preserve">
<style type="text/css">
	.st0{fill:none;stroke:#E6E6E6;stroke-width:4;stroke-miterlimit:10;}
	.st1{fill:none;}
	.st2{fill:#E6E6E6;}
	.st3{font-family:'MyriadPro-Regular';}
	.st4{font-size:40px;}
</style>
<defs>
</defs>
<polyline class="st0" points="1487.5,1344.4 87.5,1344.4 87.5,0 "/>
<rect x="121.4" y="1378.4" class="st1" width="153.2" height="34.7"/>
<text transform="matrix(1 0 0 1 156.9816 1406.7725)" class="st2 st3 st4">2007</text>
<rect x="291.1" y="1378.4" class="st1" width="153.2" height="34.7"/>
<text transform="matrix(1 0 0 1 326.6096 1406.7725)" class="st2 st3 st4">2008</text>
<rect x="460.7" y="1378.4" class="st1" width="153.2" height="34.7"/>
<text transform="matrix(1 0 0 1 496.2376 1406.7725)" class="st2 st3 st4">2009</text>
<rect x="630.3" y="1378.4" class="st1" width="153.2" height="34.7"/>
<text transform="matrix(1 0 0 1 665.8657 1406.7725)" class="st2 st3 st4">2010</text>
<rect x="800" y="1378.4" class="st1" width="153.2" height="34.7"/>
<text transform="matrix(1 0 0 1 835.4937 1406.7725)" class="st2 st3 st4">2011</text>
<rect x="969.6" y="1378.4" class="st1" width="153.2" height="34.7"/>
<text transform="matrix(1 0 0 1 1005.1216 1406.7725)" class="st2 st3 st4">2012</text>
<rect x="1139.2" y="1378.4" class="st1" width="153.2" height="34.7"/>
<text transform="matrix(1 0 0 1 1174.7496 1406.7725)" class="st2 st3 st4">2013</text>
<rect x="1308.8" y="1378.4" class="st1" width="153.2" height="34.7"/>
<text transform="matrix(1 0 0 1 1344.3777 1406.7725)" class="st2 st3 st4">2014</text>
<line class="st0" x1="87.6" y1="546.9" x2="1487.6" y2="546.9"/>
<line class="st0" x1="87.6" y1="946.9" x2="1487.6" y2="946.9"/>
<line class="st0" x1="87.6" y1="146.9" x2="1487.6" y2="146.9"/>
<rect x="12.6" y="1316.7" class="st1" width="49.9" height="36.1"/>
<text transform="matrix(1 0 0 1 27.2765 1345.0665)" class="st2 st3 st4">0</text>
<rect y="926.8" class="st1" width="75.1" height="36.1"/>
<text transform="matrix(1 0 0 1 17.0172 955.2332)" class="st2 st3 st4">10</text>
<rect x="12.6" y="527.3" class="st1" width="49.9" height="36.1"/>
<text transform="matrix(1 0 0 1 17.0167 555.7332)" class="st2 st3 st4">20</text>
<rect x="12.6" y="127.3" class="st1" width="49.9" height="36.1"/>
<text transform="matrix(1 0 0 1 17.0167 155.7215)" class="st2 st3 st4">30</text>
</svg>
