<!-- Generator: Adobe Illustrator 19.1.0, SVG Export Plug-In  -->
<svg version="1.1"
	 xmlns="http://www.w3.org/2000/svg" xmlns:xlink="http://www.w3.org/1999/xlink" xmlns:a="http://ns.adobe.com/AdobeSVGViewerExtensions/3.0/"
	 x="0px" y="0px" width="306.7px" height="315.7px" viewBox="0 0 306.7 315.7" style="enable-background:new 0 0 306.7 315.7;"
	 xml:space="preserve">
<style type="text/css">
	.st0{opacity:0.5;fill:#FF0000;}
	.st1{opacity:0.3;fill:#FF0000;}
	.st2{opacity:0.41;fill:#FF0000;}
	.st3{fill:#FF0000;}
	.st4{opacity:0.42;fill:#FF0000;}
	.st5{opacity:0.31;fill:#FF0000;}
	.st6{opacity:0.2;fill:#FF0000;}
	.st7{opacity:0.46;fill:#FF0000;}
	.st8{opacity:0.45;fill:#FF0000;}
	.st9{opacity:0.54;fill:#FF0000;}
</style>
<defs>
</defs>
<circle class="st0" cx="147.6" cy="42.2" r="15.5"/>
<circle class="st1" cx="122.6" cy="104.2" r="18.5"/>
<circle class="st1" cx="190.6" cy="297.2" r="18.5"/>
<circle class="st2" cx="109.6" cy="197.2" r="23.5"/>
<circle class="st0" cx="147.6" cy="42.2" r="10"/>
<circle class="st3" cx="150.6" cy="43.2" r="4.8"/>
<circle class="st0" cx="122.1" cy="98.7" r="7.5"/>
<circle class="st0" cx="109.1" cy="120.7" r="7.5"/>
<circle class="st4" cx="38.1" cy="270.7" r="7.5"/>
<circle class="st5" cx="4.1" cy="274.7" r="4.1"/>
<circle class="st6" cx="255.1" cy="128.7" r="4.1"/>
<circle class="st5" cx="234.1" cy="132.7" r="4.1"/>
<circle class="st5" cx="233.1" cy="163.7" r="4.1"/>
<circle class="st5" cx="240.1" cy="160.7" r="4.1"/>
<circle class="st7" cx="265.1" cy="156.7" r="4.1"/>
<circle class="st7" cx="296.1" cy="140.7" r="10.6"/>
<circle class="st7" cx="296.1" cy="140.7" r="4.8"/>
<circle class="st5" cx="258.5" cy="176.3" r="5.5"/>
<circle class="st5" cx="182" cy="41.8" r="8.9"/>
<circle class="st8" cx="191.9" cy="72.9" r="5.8"/>
<circle class="st9" cx="117.5" cy="201.3" r="10.6"/>
<circle class="st0" cx="277.6" cy="36.2" r="9.2"/>
<circle class="st0" cx="277.6" cy="36.2" r="5.9"/>
<circle class="st0" cx="286.6" cy="9.2" r="9.2"/>
<circle class="st0" cx="286.6" cy="9.2" r="3.5"/>
</svg>
